# xmcd CD database file
#
# Track frame offsets:
#	187
#	18727
#	37594
#	56124
#
# Disc length: 999 seconds
#
# Revision: 2
# Processed by: cddbd v1.5PL3 Copyright (c) Steve Scherf et al.
# Submitted via: CDex 1.51
#
DISCID=2a03e504
DTITLE=鈴木真仁＆Magical Study - ようこそマジカル・スクールへ
DYEAR=1995
DGENRE=Anime
TTITLE0=ようこそマジカル・スクールへ
TTITLE1=初恋物語
TTITLE2=ようこそマジカル・スクールへ（カラオケ）
TTITLE3=初恋物語（カラオケ）
EXTD=YEAR: 1995
EXTT0=
EXTT1=
EXTT2=
EXTT3=
PLAYORDER=
